<svg
  id="bottomRightCornerShape"
  width="543"
  height="343"
  viewBox="0 0 543 343"
  xmlns="http://www.w3.org/2000/svg"
>
  <path
    d="M52.4415 337.119C111.306 320.279 176.711 322.775 239.953 320.489C303.169 318.203 371.105 309.002 414.33 275.589C458.347 241.586 466.074 190.972 498.275 150.645C534.749 104.945 605.745 76.8282 678.165 73.3422L678.165 343.482L33.8223 343.481C39.888 341.081 46.112 338.929 52.4415 337.119Z"
    style="fill: var(--svg-color2, #D4A5FE);"
  />
  <path
    d="M47.7993 329.423C97.1165 319.879 148.992 321.651 199.681 317.555C250.369 313.46 303.379 301.916 336.081 272.561C363.588 247.854 373.979 212.917 407.156 192.591C438.936 173.142 484.376 171.656 518.898 155.064C591.212 120.318 594.483 31.8526 670.911 2.51651C673.285 1.60214 675.711 0.763975 678.138 0.00201234L678.138 343.482L0.75 343.481C15.5452 337.271 31.6063 332.547 47.7993 329.423Z"
    style="fill: var(--svg-color, #0059FF); opacity: 0.8;"
  />
</svg>
