<svg id="halfCirclesShapeRight" width="135" height="464" viewBox="0 0 135 464" fill="none" xmlns="http://www.w3.org/2000/svg" class="h-[300px] xl:h-[400px]">
  <mask id="mask0_19_27729" style="mask-type:alpha" maskUnits="userSpaceOnUse" x="0" y="0" width="143" height="464">
    <rect width="142.09" height="462.689" transform="matrix(-1 0 0 1 142.09 0.681152)" fill="#D9D9D9"></rect>
  </mask>
  <g mask="url(#mask0_19_27729)">
    <path d="M262.27 501.039L257.963 -98.8612C213.319 -80.2414 178.144 -55.7775 157.379 -17.1732C142.04 11.3834 136.252 41.3561 132.763 71.2442C129.749 96.9129 118.311 113.78 98.8905 136.529C62.8885 178.707 13.0252 220.69 23.8244 271.15C36.4228 329.925 129.654 372.949 138.047 432.067C141.654 457.765 200.408 476.719 178.562 497.727L262.27 501.039Z" style="fill: var(--svg-color2, #D4A5FE); opacity: 1;"></path>
    <path d="M238.134 418.892L234.888 -33.2241C192.796 -21.3905 153.989 -5.67776 121.621 14.5338C57.0966 54.8597 21.9159 114.821 45.7827 168.947C71.1452 226.581 156.332 269.489 177.549 327.724C188.909 358.946 180.204 390.198 159.246 419.384L238.134 418.892Z" style="fill: var(--svg-color, #0059FF); opacity: 0.9;"></path>
  </g>
</svg>